<svg xmlns="http://www.w3.org/2000/svg" viewBox="0 0 300 300"><path fill="#2b3232" d="M242.51 250.59c-3.81 1.64-8.99 2.46-15.54 2.46h-55.33v-.53c3.86-4.68 8.02-9.69 12.47-15.02 4.45-5.33 9.02-10.8 13.7-16.42 4.68-5.62 9.33-11.21 13.96-16.77 4.62-5.56 9.07-10.98 13.35-16.25 4.27-5.27 8.28-10.13 12.03-14.58 1.2-1.41 3.52-4.45 5.24-6.79.93-1.26.02-3.04-1.55-3.04h-45.17c8.28-18.19 9.56-41.98-4.03-51.1 0 0-5.62-21.54-18.54-29.41-.35-.21-.7-.38-1.05-.57-.18-3.74-.47-7.47-1.03-11.16a52.424 52.424 0 0 0-4.82-15.4c-2.39-4.85-5.89-9.16-10.49-12.94-4.6-3.78-10.67-6.74-18.23-8.88-7.56-2.14-16.88-3.21-27.96-3.21H50.2c.88.13 1.76 1.04 2.65 2.74.88 1.7 1.32 4.57 1.32 8.6V133c0 4.03-.44 6.93-1.32 8.69-.88 1.77-1.77 2.65-2.65 2.65h47.35c-11.46 17.33-18.13 34.12-18.13 34.12s13.77-9.32 12.29-5.72c-1.48 3.6-38.35 50.86-38.35 50.86s4.03-1.48 3.39 1.91c-.64 3.39-.85 6.57-.85 6.57s7.39-3.6 10.63-4.17c4.42-.77 5.05.14-4.91 10.1 0 0 4.87-.64 4.87 1.27 0 0 28.39-16.95 48.74-34.12 0 0-5.51 6.99-3.6 8.48 1.91 1.48 14.41 13.77 14.62 14.41.21.64-7.2 1.61-7.79 4.89l22.03.12s-.12-3.77-9.61-4.83c0 0-9.54-14.03-11.37-16.15-1.16-1.34 11.72-12.52 11.72-12.52s-5.39 9.36-3.75 11.47c1.64 2.11 15.82 13.6 18.28 17.7 0 0-3.87 1.29-4.57 3.98l21.42-.12c-4.28 5.25-8.23 10.11-11.79 14.49-3.81 4.68-7 8.61-9.57 11.77-1.25 1.6-3.93 4.67-5.96 7.03-1.07 1.24-.18 3.16 1.46 3.16h109.54v-5.44l3.51-17.74c-1.05 1.51-3.48 3.09-7.29 4.73zm-163.5-124.2c-.69-.5-1.04-2.14-1.04-4.91V53.65c0-2.65.34-4.19 1.04-4.63.69-.44 2.86-.66 6.52-.66h17.95c11.34 0 20.28 1.07 26.83 3.21 6.55 2.15 11.21 5.92 13.98 11.34 2.5 4.9 3.87 11.62 4.11 20.13-.7.52-1.23 1.01-1.51 1.41 0 0-28.21.3-28.26 8.35-.01 1.42 19.02 1.95 26.94 14.91-.16.44-.37.82-.55 1.24-4.25-.17-18.13.81-33.99 17.97-2.39.15-4.9.22-7.55.22H85.53c-3.66.01-5.83-.25-6.52-.75zm83.8 105.95c-.37-1.83-4.07-3.54-12.37-3.91 0 0-9.84-14.61-16.75-18.6 0 0 6.56-12.54 11.37-14.18 4.81-1.64 10.06-3.71 19.24-9.7 2.54-1.66 4.97-3.93 7.16-6.34h6.48c-1.15 2.89-2.65 5.88-4.65 8.58 0 0 5.32-.74 12.25-8.58h20.35v.35c-4.1 4.92-8.55 10.27-13.35 16.07-4.8 5.8-9.69 11.74-14.67 17.83-4.98 6.09-9.78 11.97-14.4 17.65-.22.3-.43.55-.66.83z"/></svg>