<svg xmlns="http://www.w3.org/2000/svg" id="圖層_1" x="0" y="0" version="1.1" viewBox="0 0 300 145" xml:space="preserve"><style>.st0{fill:#231815}</style><path d="M114.89 112.57c-1.53.66-3.61.99-6.24.99H86.44v-.21c1.55-1.88 3.22-3.89 5.01-6.03 1.79-2.14 3.62-4.34 5.5-6.59 1.88-2.26 3.75-4.5 5.61-6.73 1.86-2.23 3.64-4.41 5.36-6.52 1.71-2.12 3.33-4.07 4.83-5.85.48-.57 1.41-1.79 2.1-2.73a.767.767 0 0 0-.62-1.22H96.09c3.32-7.3 3.84-16.86-1.62-20.52 0 0-2.26-8.65-7.44-11.81-.13-.08-.26-.14-.4-.22-.07-1.51-.21-3.01-.44-4.49-.33-2.17-.97-4.24-1.93-6.18-.96-1.95-2.36-3.68-4.21-5.2s-4.29-2.7-7.32-3.56c-3.03-.86-6.78-1.29-11.23-1.29H37.68c.35.05.71.42 1.06 1.1.35.68.53 1.83.53 3.45v36.41c0 1.62-.18 2.78-.53 3.49-.35.71-.71 1.06-1.06 1.06h19.01c-4.6 6.96-7.28 13.7-7.28 13.7s5.53-3.74 4.93-2.3c-.6 1.45-15.4 20.42-15.4 20.42s1.62-.6 1.36.77c-.26 1.36-.34 2.64-.34 2.64s2.97-1.45 4.27-1.67c1.77-.31 2.03.06-1.97 4.06 0 0 1.96-.26 1.96.51 0 0 11.4-6.81 19.57-13.7 0 0-2.21 2.81-1.45 3.4.77.6 5.78 5.53 5.87 5.78.08.26-2.89.64-3.13 1.96l8.85.05s-.05-1.51-3.86-1.94c0 0-3.83-5.63-4.56-6.48-.47-.54 4.71-5.03 4.71-5.03s-2.16 3.76-1.51 4.6 6.35 5.46 7.34 7.1c0 0-1.55.52-1.83 1.6l8.6-.05c-1.72 2.11-3.3 4.06-4.73 5.82-1.53 1.88-2.81 3.46-3.84 4.72-.5.64-1.58 1.87-2.39 2.82-.43.5-.07 1.27.59 1.27h43.98v-2.19l1.41-7.12c-.45.62-1.42 1.25-2.95 1.91zM49.25 62.71c-.28-.2-.42-.86-.42-1.97V33.51c0-1.06.14-1.68.42-1.86.28-.18 1.15-.27 2.62-.27h7.21c4.55 0 8.14.43 10.77 1.29 2.63.86 4.5 2.38 5.61 4.55 1.01 1.97 1.55 4.67 1.65 8.08-.28.21-.49.41-.61.57 0 0-11.32.12-11.35 3.35 0 .57 7.65.78 10.83 6-.06.16-.12.33-.19.49-1.66-.07-7.27.27-13.68 7.21-.96.06-1.97.09-3.03.09h-7.21c-1.47 0-2.34-.1-2.62-.3zm33.64 42.54c-.15-.74-1.63-1.42-4.96-1.57 0 0-3.95-5.87-6.72-7.47 0 0 2.63-5.03 4.56-5.69 1.93-.66 4.04-1.49 7.72-3.89 1.02-.67 1.99-1.58 2.88-2.54h2.6c-.46 1.16-1.06 2.36-1.87 3.45 0 0 2.14-.3 4.92-3.45h8.17v.14c-1.65 1.97-3.43 4.12-5.36 6.45-1.93 2.33-3.89 4.71-5.89 7.16-2 2.45-3.93 4.81-5.78 7.09-.09.1-.18.21-.27.32zM135.6 30.06h21.46V32h-19.42v12.26c0 3.47-.61 6.17-1.84 8.07l-1.64-1.64c.95-1.36 1.43-3.54 1.43-6.54V30.06zm3.58 3.37h7.77v6.74h-7.77v-6.74zm6.03 14.72h-4.29v4.09h-1.74V41.51h7.77v9.1c0 .95-.48 1.43-1.43 1.43h-1.33l-.51-1.64h1.12c.27 0 .41-.14.41-.41v-1.84zm0-13.49h-4.29v1.53h4.29v-1.53zm0 4.29v-1.53h-4.29v1.53h4.29zm0 5.32v-1.53h-4.29v1.53h4.29zm0 2.65v-1.43h-4.29v1.43h4.29zm3.27 5.42l-1.23-1.74c2.25-1.64 3.37-4.74 3.37-9.3v-1.33h-2.55v-1.94h2.55v-5.21h1.64c.55.07.58.27.1.61v4.6h4.7v1.94h-4.39l.2 1.33c.55 3.41 2.18 6.23 4.91 8.48l-1.33 2.04c-2.11-2.18-3.51-4.74-4.19-7.66-.34 3.82-1.6 6.55-3.78 8.18zm6.24-18.6c.68.68 1.29 1.5 1.84 2.45l-1.64 1.23c-.55-1.02-1.09-1.87-1.64-2.56l1.44-1.12zM190.93 48.15v2.25h-16.15v1.74h-2.04V37.93h-3.78v-2.25h3.78v-5.72h1.94c.54.07.58.27.1.61v5.11h4.39v-6.34h1.94c.54.07.58.27.1.61v5.72h5.01v-5.93h1.94c.54.07.58.27.1.61v5.31h3.78v2.25h-3.78v7.66h-2.04v-1.23h-5.01v1.74h-2.04V37.9h-4.39v10.22h16.15zm-4.7-5.72v-4.5h-5.01v4.5h5.01zM205.27 36.71v-6.95H216v6.95h-4.29v1.64h6.03v1.64h-14.21v-1.64h6.13v-1.64H205.27zm-1.63 13.28c1.36-.95 2.42-2.08 3.17-3.37l1.84 1.23c.2.2 0 .41-.61.61-.61 1.02-1.6 2.04-2.96 3.07l-1.44-1.54zm1.53-3.88V41.2h10.93v4.91h-4.29v4.7c0 1.09-.55 1.64-1.64 1.64h-1.94l-.31-1.94h1.43c.27 0 .41-.14.41-.41v-3.99h-4.59zm2.04-1.64h6.85v-1.64h-6.85v1.64zm.1-13.49v1.64h6.64v-1.64h-6.64zm0 2.86v1.64h6.64v-1.64h-6.64zm6.65 12.88c1.02.61 1.84 1.26 2.45 1.94l-1.23 1.74c-.55-.82-1.33-1.57-2.35-2.25l1.13-1.43zm2.45 3.58c4.22-1.98 7.29-4.29 9.2-6.95l1.74 1.74c.07.34-.14.44-.61.31-1.98 2.59-4.97 4.87-8.99 6.85l-1.34-1.95zm.41-15.74a19.2 19.2 0 0 0 6.85-5.01l1.74 1.74c.14.34-.1.44-.72.31-1.7 1.84-3.88 3.44-6.54 4.8l-1.33-1.84zm9.61 3.37c.07.34-.14.44-.61.31-1.5 1.84-3.92 3.61-7.26 5.31l-1.33-1.84c3.47-1.7 5.99-3.51 7.56-5.42l1.64 1.64zM242.61 36.3l.41.1c.2.2.14.41-.2.61v15.33h-2.04V39.67c-.68 1.02-1.4 1.87-2.15 2.55l-1.12-2.04c3-3.2 4.74-6.95 5.21-11.24l2.25.82c.27.27.17.44-.31.51-.49 2.52-1.17 4.53-2.05 6.03zm10.52 7.76c-2.11 1.57-4.7 2.86-7.77 3.88l-.51-1.74c3.13-.95 5.55-2.15 7.26-3.58l-.72-.92c-2.25 1.36-4.46 2.35-6.64 2.96l-.61-1.64c2.66-.68 4.91-1.7 6.74-3.07h-4.29v-4.29c-.68.61-1.47 1.16-2.35 1.64l-.72-1.84c2.86-1.84 4.91-4.16 6.13-6.95l1.94.51c.27.27.17.44-.31.51l-.31.51h3.88l.31-.41 1.84.92c.41.34.27.58-.41.72l-2.04 2.76h5.52v5.93h-6.13c-.34.27-.75.58-1.23.92.68.48 1.29 1.16 1.84 2.04 1.64-.82 3.03-1.7 4.19-2.66l1.53 1.53c.07.34-.1.44-.51.31a60.49 60.49 0 0 1-4.09 1.94c1.77 2.18 3.85 3.75 6.23 4.7l-1.23 1.94c-2.11-1.16-3.82-2.66-5.11-4.5.48 4.02-.27 6.03-2.25 6.03h-2.04l-.41-1.94h1.74c1.02 0 1.43-1.16 1.23-3.47-2.45 2.11-5.38 3.74-8.79 4.91l-.51-1.84c3.47-1.16 6.47-2.83 8.99-5.01l-.39-.8zm-4.9-10.01h4.39l1.64-2.35h-4.09c-.34.47-.99 1.26-1.94 2.35zm.1 4.29h4.09v-2.66h-4.09v2.66zm5.83 0h4.19v-2.66h-4.19v2.66zM133.16 78.86H136l3.35 8.81c.34.92.63 1.82.96 3.05.38-1.34.69-2.28.98-3.05l3.31-8.81h2.78l-5.69 15.3h-2.76l-5.77-15.3zM162.44 94.16h-2.68v-15.3h2.68v15.3zM176.29 94.16v-15.3h5.36c4.52 0 7.64 3.12 7.64 7.68 0 4.5-3.06 7.62-7.5 7.62h-5.5zm2.68-12.83v10.36h2.57c3.06 0 4.92-1.97 4.92-5.15 0-3.24-1.9-5.21-5.07-5.21h-2.42zM202.25 94.16v-15.3h9.5v2.47h-6.82v3.93h6.11v2.37h-6.11v4.06h6.82v2.47h-9.5zM231.63 94.41c-4.38 0-7.39-3.24-7.39-7.91 0-4.65 3.04-7.91 7.41-7.91 4.38 0 7.43 3.24 7.43 7.91.01 4.65-3.05 7.91-7.45 7.91zm.03-13.25c-2.81 0-4.61 2.07-4.61 5.34 0 3.26 1.8 5.34 4.61 5.34 2.8 0 4.61-2.11 4.61-5.34-.01-3.27-1.81-5.34-4.61-5.34zM139.21 104.75c3.1 0 5.07 1.72 5.15 4.48h-2.68c-.06-1.32-1-2.09-2.51-2.09-1.66 0-2.72.79-2.72 2.07 0 1.09.59 1.69 1.86 1.99l2.41.53c2.62.56 3.89 1.9 3.89 4.19 0 2.85-2.22 4.69-5.59 4.69-3.26 0-5.4-1.74-5.46-4.48h2.68c.02 1.3 1.07 2.08 2.78 2.08 1.78 0 2.91-.78 2.91-2.05 0-1.03-.52-1.63-1.78-1.9l-2.43-.55c-2.6-.56-3.96-2.05-3.96-4.4 0-2.7 2.22-4.56 5.45-4.56zM155.95 105.02h11.64v2.47h-4.48v12.83h-2.68v-12.83h-4.48v-2.47zM180 105.02h2.68v9.55c0 2.2 1.19 3.41 3.37 3.41s3.39-1.23 3.39-3.41v-9.55h2.68v9.71c0 3.58-2.34 5.84-6.07 5.84-3.71 0-6.05-2.24-6.05-5.84v-9.71zM205.87 120.32v-15.3h5.36c4.52 0 7.64 3.12 7.64 7.68 0 4.5-3.06 7.62-7.49 7.62h-5.51zm2.68-12.83v10.36h2.57c3.06 0 4.92-1.97 4.92-5.15 0-3.24-1.9-5.21-5.07-5.21h-2.42zM234.5 120.32h-2.68v-15.3h2.68v15.3zM254.87 120.57c-4.38 0-7.39-3.24-7.39-7.91 0-4.65 3.04-7.91 7.41-7.91s7.43 3.24 7.43 7.91c0 4.65-3.06 7.91-7.45 7.91zm.02-13.25c-2.81 0-4.61 2.07-4.61 5.34 0 3.26 1.8 5.34 4.61 5.34 2.8 0 4.61-2.11 4.61-5.34-.01-3.26-1.81-5.34-4.61-5.34z" class="st0"/></svg>